<?xml version="1.0" encoding="UTF-8" standalone="no"?>
<svg
   xmlns:dc="http://purl.org/dc/elements/1.1/"
   xmlns:cc="http://creativecommons.org/ns#"
   xmlns:rdf="http://www.w3.org/1999/02/22-rdf-syntax-ns#"
   xmlns:svg="http://www.w3.org/2000/svg"
   xmlns="http://www.w3.org/2000/svg"
   width="100"
   height="100"
   viewBox="0 0 26.458333 26.458334"
   version="1.1"
   id="svg8">
  <defs
     id="defs2">
    <rect
       x="-217.4325"
       y="363.50253"
       width="56.866962"
       height="89.203079"
       id="rect1068" />
    <rect
       x="-3.3451154"
       y="395.83865"
       width="48.832825"
       height="65.255913"
       id="rect1062" />
    <rect
       x="-217.4325"
       y="363.50253"
       width="56.866962"
       height="89.203079"
       id="rect1068-8" />
    <rect
       x="-217.4325"
       y="363.50253"
       width="56.866962"
       height="89.203079"
       id="rect1081" />
  </defs>
  <metadata
     id="metadata5">
    <rdf:RDF>
      <cc:Work
         rdf:about="">
        <dc:format>image/svg+xml</dc:format>
        <dc:type
           rdf:resource="http://purl.org/dc/dcmitype/StillImage" />
        <dc:title></dc:title>
      </cc:Work>
    </rdf:RDF>
  </metadata>
  <g
     id="layer1">
    <rect
       style="fill:#008000;fill-opacity:0.504762;stroke-width:0.409564"
       id="rect895"
       width="115.11389"
       height="58.739616"
       x="52.432007"
       y="59.133846"
       ry="0" />
    <path
       id="path929"
       style="mix-blend-mode:normal;fill:#d40000;fill-opacity:1;stroke-width:0.0288208"
       d="M 13.302382,0 0.08129,9.71082 h -0.0273 l -9e-5,0.0202 -5.3e-4,2.7e-4 H 0.0539 L 0,26.41119 l 26.404276,0.0342 0.05406,-16.70037 z" />
    <rect
       style="fill:#ffff00;fill-opacity:1;stroke-width:0.0254558"
       id="rect1058"
       width="18.810783"
       height="12.307391"
       x="4.0985575"
       y="10.457353" />
    <path
       id="rect1026"
       style="fill:#000000;fill-opacity:1;stroke-width:0.00421119"
       d="m 17.20672,6.55629 -1.902427,1.94019 -5.222832,10.99283 4.5e-4,-5.3e-4 -4.5e-4,5.3e-4 1.49689,-0.4591 2.511008,-2.61459 -5.202388,10.04271 2.141773,-1.85669 5.622358,-10.85345 -1.4969,0.45911 -3.13204,3.26125 z" />
    <text
       xml:space="preserve"
       id="text1060"
       style="font-style:normal;font-weight:normal;font-size:10.5833px;line-height:1.25;font-family:sans-serif;white-space:pre;shape-inside:url(#rect1062);fill:#000000;fill-opacity:1;stroke:none;" />
    <text
       xml:space="preserve"
       id="text1066"
       style="font-style:normal;font-weight:normal;font-size:10.5833px;line-height:1.25;font-family:sans-serif;white-space:pre;shape-inside:url(#rect1068);fill:#000000;fill-opacity:1;stroke:none;"
       transform="matrix(0.62453501,0,0,0.74593916,140.60733,-259.07794)"><tspan
         x="-217.43164"
         y="373.15742"><tspan
           style="font-style:normal;font-variant:normal;font-weight:bold;font-stretch:normal;font-family:sans-serif;-inkscape-font-specification:'sans-serif Bold'">H</tspan></tspan></text>
    <text
       xml:space="preserve"
       id="text1066-1"
       style="font-style:normal;font-weight:normal;font-size:10.5833px;line-height:1.25;font-family:sans-serif;white-space:pre;shape-inside:url(#rect1068-8);fill:#000000;fill-opacity:1;stroke:none;"
       transform="matrix(0.62453501,0,0,0.74593916,152.5336,-258.92934)"><tspan
         x="-217.43164"
         y="373.15742"><tspan
           style="font-style:normal;font-variant:normal;font-weight:bold;font-stretch:normal;font-family:sans-serif;-inkscape-font-specification:'sans-serif Bold'">O</tspan></tspan></text>
    <rect
       style="fill:#000000;fill-opacity:1;stroke-width:0.0254558"
       id="rect1108"
       width="2.4055419"
       height="2.1146603"
       x="6.2826471"
       y="8.2807474" />
    <rect
       style="fill:#000000;fill-opacity:1;stroke-width:0.0254558"
       id="rect1110"
       width="2.9715519"
       height="2.7653248"
       x="18.45186"
       y="7.7927718" />
    <rect
       style="fill:#ffff00;fill-opacity:1;stroke-width:0.0717381"
       id="rect1112"
       width="0.34590897"
       height="2.2460155"
       x="19.796137"
       y="8.0302896" />
    <rect
       style="fill:#ffff00;fill-opacity:1;stroke-width:0.0717382"
       id="rect1112-8"
       width="0.39764327"
       height="1.9538057"
       x="8.9971485"
       y="-20.918474"
       transform="matrix(0.00450663,0.99998985,-0.99998227,0.00595543,0,0)" />
    <rect
       style="fill:#ffff00;fill-opacity:1;stroke-width:0.0717382"
       id="rect1112-8-0"
       width="0.39764327"
       height="1.9538057"
       x="9.1529713"
       y="-8.4604149"
       transform="matrix(0.00450663,0.99998985,-0.99998227,0.00595543,0,0)" />
    <path
       style="fill:#000000;fill-rule:nonzero;stroke:none;stroke-width:0.264583px;stroke-linecap:butt;stroke-linejoin:miter;stroke-opacity:1"
       d="m 4.0985574,10.589644 c 4.2652274,0 10.9482386,0 18.6784916,0 -1e-6,3.669375 -1e-6,7.854096 -1e-6,12.042808 -6.288705,0 -12.709701,0 -18.5461991,1e-6 0,-5.038318 0,-9.392892 0,-12.175101 z M 3.9662659,10.457352 c 0,2.806531 0,7.213039 0,12.307392 v 0.132291 h 0.1322915 c 5.871689,0 12.3412356,0 18.8107826,0 h 0.132291 v -0.132291 c 1e-6,-4.232851 1e-6,-8.465703 0,-12.307392 V 10.32506 H 22.90934 c -7.786277,0 -14.521243,0 -18.8107826,0 z"
       id="path1159" />
  </g>
</svg>
